<svg width="425" height="24" viewBox="0 0 425 24" fill="none" xmlns="http://www.w3.org/2000/svg">
<g id="checkbox">
<path id="Vector" d="M14.2222 6.66667V18.3333H1.77778V6.66667H14.2222ZM14.2222 5H1.77778C0.8 5 0 5.75 0 6.66667V18.3333C0 19.25 0.8 20 1.77778 20H14.2222C15.2 20 16 19.25 16 18.3333V6.66667C16 5.75 15.2 5 14.2222 5Z" fill="#212121"/>
<g id="&#208;&#161;&#208;&#190;&#208;&#179;&#208;&#187;&#208;&#176;&#209;&#136;&#208;&#176;&#209;&#142;&#209;&#129;&#209;&#140; &#209;&#129; &#209;&#128;&#208;&#176;&#209;&#129;&#209;&#129;&#209;&#139;&#208;&#187;&#208;&#186;&#208;&#190;&#208;&#185; &#208;&#184; &#208;&#191;&#209;&#128;&#208;&#184;&#208;&#189;&#208;&#184;&#208;&#188;&#208;&#176;&#209;&#142; &#208;&#163;&#209;&#129;&#208;&#187;&#208;&#190;&#208;&#178;&#208;&#184;&#209;&#143; &#208;&#180;&#208;&#190;&#208;&#179;&#208;&#190;&#208;&#178;&#208;&#190;&#209;&#128;&#208;&#176;">
<path d="M32.853 13.8418C32.73 14.8945 32.3403 15.708 31.6841 16.2822C31.0324 16.8519 30.1642 17.1367 29.0796 17.1367C27.9038 17.1367 26.9604 16.7152 26.2495 15.8721C25.5431 15.029 25.1899 13.901 25.1899 12.4883V11.5312C25.1899 10.6061 25.354 9.79264 25.6821 9.09082C26.0148 8.389 26.4842 7.85124 27.0903 7.47754C27.6965 7.09928 28.3983 6.91016 29.1958 6.91016C30.2531 6.91016 31.1007 7.20638 31.7388 7.79883C32.3768 8.38672 32.7482 9.20247 32.853 10.2461H31.5337C31.4198 9.45312 31.1714 8.87891 30.7886 8.52344C30.4103 8.16797 29.8794 7.99023 29.1958 7.99023C28.3573 7.99023 27.6987 8.30013 27.2202 8.91992C26.7463 9.53971 26.5093 10.4215 26.5093 11.5654V12.5293C26.5093 13.6094 26.7349 14.4684 27.186 15.1064C27.6372 15.7445 28.2684 16.0635 29.0796 16.0635C29.8088 16.0635 30.367 15.8994 30.7544 15.5713C31.1463 15.2386 31.4061 14.6621 31.5337 13.8418H32.853ZM34.5377 13.2334C34.5377 12.5088 34.679 11.8571 34.9615 11.2783C35.2486 10.6995 35.6451 10.2529 36.151 9.93848C36.6614 9.62402 37.2424 9.4668 37.8941 9.4668C38.9013 9.4668 39.7148 9.81543 40.3346 10.5127C40.9589 11.21 41.2711 12.1374 41.2711 13.2949V13.3838C41.2711 14.1038 41.1321 14.751 40.8541 15.3252C40.5806 15.8949 40.1864 16.3392 39.6715 16.6582C39.161 16.9772 38.5732 17.1367 37.9078 17.1367C36.9052 17.1367 36.0917 16.7881 35.4674 16.0908C34.8476 15.3936 34.5377 14.4707 34.5377 13.3223V13.2334ZM35.8092 13.3838C35.8092 14.2041 35.9983 14.8626 36.3765 15.3594C36.7594 15.8561 37.2698 16.1045 37.9078 16.1045C38.5504 16.1045 39.0608 15.8538 39.439 15.3525C39.8173 14.8467 40.0064 14.1403 40.0064 13.2334C40.0064 12.4222 39.8127 11.766 39.4254 11.2646C39.0426 10.7588 38.5321 10.5059 37.8941 10.5059C37.2698 10.5059 36.7662 10.7542 36.3834 11.251C36.0006 11.7477 35.8092 12.4587 35.8092 13.3838ZM48.0553 10.6494H44.6442V17H43.3727V9.60352H48.0553V10.6494ZM55.366 9.60352V17H54.0945V10.6494H51.5788L51.4285 13.418C51.3464 14.6895 51.1322 15.5986 50.7859 16.1455C50.4441 16.6924 49.8995 16.9772 49.1521 17H48.6462V15.8857L49.0085 15.8584C49.4187 15.8128 49.7126 15.5758 49.8904 15.1475C50.0681 14.7191 50.182 13.9261 50.2322 12.7686L50.3689 9.60352H55.366ZM62.3826 17C62.3097 16.8542 62.2505 16.5944 62.2049 16.2207C61.617 16.8314 60.9152 17.1367 60.0994 17.1367C59.3703 17.1367 58.771 16.9316 58.3016 16.5215C57.8367 16.1068 57.6043 15.5827 57.6043 14.9492C57.6043 14.179 57.896 13.582 58.4793 13.1582C59.0672 12.7298 59.8921 12.5156 60.9539 12.5156H62.1844V11.9346C62.1844 11.4925 62.0522 11.1416 61.7879 10.8818C61.5236 10.6175 61.1339 10.4854 60.619 10.4854C60.1678 10.4854 59.7895 10.5993 59.4842 10.8271C59.1789 11.055 59.0262 11.3307 59.0262 11.6543H57.7547C57.7547 11.2852 57.8846 10.9297 58.1444 10.5879C58.4087 10.2415 58.7641 9.9681 59.2108 9.76758C59.6619 9.56706 60.1564 9.4668 60.6942 9.4668C61.5464 9.4668 62.214 9.68099 62.6971 10.1094C63.1802 10.5332 63.4308 11.1188 63.449 11.8662V15.2705C63.449 15.9495 63.5356 16.4896 63.7088 16.8906V17H62.3826ZM60.284 16.0361C60.6805 16.0361 61.0565 15.9336 61.4119 15.7285C61.7674 15.5234 62.0249 15.2568 62.1844 14.9287V13.4111H61.1932C59.6437 13.4111 58.869 13.8646 58.869 14.7715C58.869 15.168 59.0011 15.4779 59.2654 15.7012C59.5298 15.9245 59.8693 16.0361 60.284 16.0361ZM67.2323 9.60352V15.9678H69.9394V9.60352H71.204V15.9678H73.9042V9.60352H75.1757V17H65.9608V9.60352H67.2323ZM82.1582 17C82.0853 16.8542 82.026 16.5944 81.9804 16.2207C81.3926 16.8314 80.6907 17.1367 79.875 17.1367C79.1458 17.1367 78.5465 16.9316 78.0771 16.5215C77.6123 16.1068 77.3799 15.5827 77.3799 14.9492C77.3799 14.179 77.6715 13.582 78.2549 13.1582C78.8428 12.7298 79.6676 12.5156 80.7295 12.5156H81.9599V11.9346C81.9599 11.4925 81.8278 11.1416 81.5635 10.8818C81.2991 10.6175 80.9095 10.4854 80.3945 10.4854C79.9433 10.4854 79.5651 10.5993 79.2597 10.8271C78.9544 11.055 78.8017 11.3307 78.8017 11.6543H77.5303C77.5303 11.2852 77.6601 10.9297 77.9199 10.5879C78.1842 10.2415 78.5397 9.9681 78.9863 9.76758C79.4375 9.56706 79.9319 9.4668 80.4697 9.4668C81.3219 9.4668 81.9896 9.68099 82.4726 10.1094C82.9557 10.5332 83.2064 11.1188 83.2246 11.8662V15.2705C83.2246 15.9495 83.3112 16.4896 83.4844 16.8906V17H82.1582ZM80.0596 16.0361C80.456 16.0361 80.832 15.9336 81.1875 15.7285C81.5429 15.5234 81.8004 15.2568 81.9599 14.9287V13.4111H80.9687C79.4193 13.4111 78.6445 13.8646 78.6445 14.7715C78.6445 15.168 78.7767 15.4779 79.041 15.7012C79.3053 15.9245 79.6448 16.0361 80.0596 16.0361ZM87.0079 12.7412H88.7852C88.8809 11.7568 89.2295 10.9661 89.8311 10.3691C90.4372 9.76758 91.2006 9.4668 92.1212 9.4668C93.0873 9.4668 93.878 9.79264 94.4932 10.4443C95.1085 11.096 95.4411 11.9437 95.4913 12.9873L95.4981 13.3838C95.4981 14.1038 95.3568 14.7533 95.0743 15.332C94.7917 15.9108 94.3952 16.3574 93.8848 16.6719C93.3744 16.9818 92.7911 17.1367 92.1348 17.1367C91.1823 17.1367 90.4031 16.8268 89.7969 16.207C89.1908 15.5827 88.8513 14.7738 88.7784 13.7803H87.0079V17H85.7432V9.60352H87.0079V12.7412ZM90.0294 13.3838C90.0294 14.2041 90.2185 14.8626 90.5967 15.3594C90.9795 15.8561 91.4922 16.1045 92.1348 16.1045C92.7774 16.1045 93.2855 15.8516 93.6592 15.3457C94.0375 14.8398 94.2266 14.1357 94.2266 13.2334C94.2266 12.4268 94.0352 11.7705 93.6524 11.2646C93.2696 10.7588 92.7592 10.5059 92.1212 10.5059C91.4922 10.5059 90.9864 10.7542 90.6036 11.251C90.2208 11.7477 90.0294 12.4587 90.0294 13.3838ZM100.443 16.1045C100.895 16.1045 101.289 15.9678 101.626 15.6943C101.963 15.4209 102.15 15.0791 102.187 14.6689H103.383C103.36 15.0928 103.214 15.4961 102.945 15.8789C102.677 16.2617 102.317 16.5671 101.865 16.7949C101.419 17.0228 100.945 17.1367 100.443 17.1367C99.4363 17.1367 98.6343 16.8018 98.0372 16.1318C97.4448 15.4574 97.1486 14.5368 97.1486 13.3701V13.1582C97.1486 12.4382 97.2807 11.7979 97.5451 11.2373C97.8094 10.6768 98.1876 10.2415 98.6798 9.93164C99.1766 9.62174 99.7622 9.4668 100.437 9.4668C101.266 9.4668 101.954 9.71517 102.501 10.2119C103.053 10.7087 103.346 11.3535 103.383 12.1465H102.187C102.15 11.668 101.968 11.276 101.64 10.9707C101.316 10.6608 100.915 10.5059 100.437 10.5059C99.7941 10.5059 99.2951 10.7383 98.9396 11.2031C98.5887 11.6634 98.4132 12.3311 98.4132 13.2061V13.4453C98.4132 14.2975 98.5887 14.9538 98.9396 15.4141C99.2905 15.8743 99.7918 16.1045 100.443 16.1045ZM106.606 12.1533H108.527C109.365 12.1624 110.028 12.3812 110.516 12.8096C111.003 13.238 111.247 13.819 111.247 14.5527C111.247 15.291 110.997 15.8835 110.495 16.3301C109.994 16.7767 109.32 17 108.472 17H105.341V9.60352H106.606V12.1533ZM106.606 13.1855V15.9678H108.486C108.96 15.9678 109.326 15.847 109.586 15.6055C109.846 15.3594 109.976 15.0244 109.976 14.6006C109.976 14.1904 109.848 13.8555 109.593 13.5957C109.342 13.3314 108.989 13.1947 108.533 13.1855H106.606ZM120.106 16.1045C120.557 16.1045 120.951 15.9678 121.288 15.6943C121.626 15.4209 121.813 15.0791 121.849 14.6689H123.045C123.023 15.0928 122.877 15.4961 122.608 15.8789C122.339 16.2617 121.979 16.5671 121.528 16.7949C121.081 17.0228 120.607 17.1367 120.106 17.1367C119.099 17.1367 118.297 16.8018 117.7 16.1318C117.107 15.4574 116.811 14.5368 116.811 13.3701V13.1582C116.811 12.4382 116.943 11.7979 117.207 11.2373C117.472 10.6768 117.85 10.2415 118.342 9.93164C118.839 9.62174 119.425 9.4668 120.099 9.4668C120.928 9.4668 121.617 9.71517 122.163 10.2119C122.715 10.7087 123.009 11.3535 123.045 12.1465H121.849C121.813 11.668 121.63 11.276 121.302 10.9707C120.979 10.6608 120.578 10.5059 120.099 10.5059C119.456 10.5059 118.957 10.7383 118.602 11.2031C118.251 11.6634 118.076 12.3311 118.076 13.2061V13.4453C118.076 14.2975 118.251 14.9538 118.602 15.4141C118.953 15.8743 119.454 16.1045 120.106 16.1045ZM135.028 13.3838C135.028 14.5094 134.77 15.4163 134.255 16.1045C133.74 16.7926 133.043 17.1367 132.164 17.1367C131.266 17.1367 130.559 16.8519 130.044 16.2822V19.8438H128.78V9.60352H129.935L129.997 10.4238C130.512 9.78581 131.227 9.4668 132.143 9.4668C133.032 9.4668 133.734 9.80176 134.249 10.4717C134.768 11.1416 135.028 12.0736 135.028 13.2676V13.3838ZM133.763 13.2402C133.763 12.4062 133.585 11.7477 133.23 11.2646C132.875 10.7816 132.387 10.54 131.767 10.54C131.002 10.54 130.427 10.8796 130.044 11.5586V15.0928C130.423 15.7673 131.002 16.1045 131.781 16.1045C132.387 16.1045 132.868 15.8652 133.223 15.3867C133.583 14.9036 133.763 14.1882 133.763 13.2402ZM141.628 17C141.555 16.8542 141.495 16.5944 141.45 16.2207C140.862 16.8314 140.16 17.1367 139.344 17.1367C138.615 17.1367 138.016 16.9316 137.547 16.5215C137.082 16.1068 136.849 15.5827 136.849 14.9492C136.849 14.179 137.141 13.582 137.724 13.1582C138.312 12.7298 139.137 12.5156 140.199 12.5156H141.429V11.9346C141.429 11.4925 141.297 11.1416 141.033 10.8818C140.769 10.6175 140.379 10.4854 139.864 10.4854C139.413 10.4854 139.034 10.5993 138.729 10.8271C138.424 11.055 138.271 11.3307 138.271 11.6543H137C137 11.2852 137.13 10.9297 137.389 10.5879C137.654 10.2415 138.009 9.9681 138.456 9.76758C138.907 9.56706 139.401 9.4668 139.939 9.4668C140.791 9.4668 141.459 9.68099 141.942 10.1094C142.425 10.5332 142.676 11.1188 142.694 11.8662V15.2705C142.694 15.9495 142.781 16.4896 142.954 16.8906V17H141.628ZM139.529 16.0361C139.925 16.0361 140.301 15.9336 140.657 15.7285C141.012 15.5234 141.27 15.2568 141.429 14.9287V13.4111H140.438C138.889 13.4111 138.114 13.8646 138.114 14.7715C138.114 15.168 138.246 15.4779 138.51 15.7012C138.775 15.9245 139.114 16.0361 139.529 16.0361ZM148.063 16.1045C148.514 16.1045 148.909 15.9678 149.246 15.6943C149.583 15.4209 149.77 15.0791 149.806 14.6689H151.003C150.98 15.0928 150.834 15.4961 150.565 15.8789C150.296 16.2617 149.936 16.5671 149.485 16.7949C149.038 17.0228 148.564 17.1367 148.063 17.1367C147.056 17.1367 146.254 16.8018 145.657 16.1318C145.064 15.4574 144.768 14.5368 144.768 13.3701V13.1582C144.768 12.4382 144.9 11.7979 145.165 11.2373C145.429 10.6768 145.807 10.2415 146.3 9.93164C146.796 9.62174 147.382 9.4668 148.056 9.4668C148.886 9.4668 149.574 9.71517 150.121 10.2119C150.672 10.7087 150.966 11.3535 151.003 12.1465H149.806C149.77 11.668 149.588 11.276 149.259 10.9707C148.936 10.6608 148.535 10.5059 148.056 10.5059C147.414 10.5059 146.915 10.7383 146.559 11.2031C146.208 11.6634 146.033 12.3311 146.033 13.2061V13.4453C146.033 14.2975 146.208 14.9538 146.559 15.4141C146.91 15.8743 147.411 16.1045 148.063 16.1045ZM155.811 16.1045C156.262 16.1045 156.657 15.9678 156.994 15.6943C157.331 15.4209 157.518 15.0791 157.554 14.6689H158.751C158.728 15.0928 158.582 15.4961 158.313 15.8789C158.044 16.2617 157.684 16.5671 157.233 16.7949C156.787 17.0228 156.313 17.1367 155.811 17.1367C154.804 17.1367 154.002 16.8018 153.405 16.1318C152.813 15.4574 152.516 14.5368 152.516 13.3701V13.1582C152.516 12.4382 152.649 11.7979 152.913 11.2373C153.177 10.6768 153.555 10.2415 154.048 9.93164C154.544 9.62174 155.13 9.4668 155.804 9.4668C156.634 9.4668 157.322 9.71517 157.869 10.2119C158.42 10.7087 158.714 11.3535 158.751 12.1465H157.554C157.518 11.668 157.336 11.276 157.008 10.9707C156.684 10.6608 156.283 10.5059 155.804 10.5059C155.162 10.5059 154.663 10.7383 154.307 11.2031C153.956 11.6634 153.781 12.3311 153.781 13.2061V13.4453C153.781 14.2975 153.956 14.9538 154.307 15.4141C154.658 15.8743 155.16 16.1045 155.811 16.1045ZM161.973 12.1533H163.894C164.733 12.1624 165.396 12.3812 165.884 12.8096C166.371 13.238 166.615 13.819 166.615 14.5527C166.615 15.291 166.364 15.8835 165.863 16.3301C165.362 16.7767 164.687 17 163.84 17H160.709V9.60352H161.973V12.1533ZM169.254 17H167.982V9.60352H169.254V17ZM161.973 13.1855V15.9678H163.853C164.327 15.9678 164.694 15.847 164.954 15.6055C165.214 15.3594 165.344 15.0244 165.344 14.6006C165.344 14.1904 165.216 13.8555 164.961 13.5957C164.71 13.3314 164.357 13.1947 163.901 13.1855H161.973ZM177.945 9.60352V17H176.674V10.6494H174.158L174.008 13.418C173.926 14.6895 173.712 15.5986 173.365 16.1455C173.023 16.6924 172.479 16.9772 171.731 17H171.226V15.8857L171.588 15.8584C171.998 15.8128 172.292 15.5758 172.47 15.1475C172.647 14.7191 172.761 13.9261 172.811 12.7686L172.948 9.60352H177.945ZM182.699 13.8486H181.776V17H180.505V9.60352H181.776V12.7344H182.604L185.092 9.60352H186.623L183.697 13.1582L186.869 17H185.263L182.699 13.8486ZM187.891 13.2334C187.891 12.5088 188.032 11.8571 188.315 11.2783C188.602 10.6995 188.998 10.2529 189.504 9.93848C190.014 9.62402 190.595 9.4668 191.247 9.4668C192.254 9.4668 193.068 9.81543 193.688 10.5127C194.312 11.21 194.624 12.1374 194.624 13.2949V13.3838C194.624 14.1038 194.485 14.751 194.207 15.3252C193.934 15.8949 193.539 16.3392 193.025 16.6582C192.514 16.9772 191.926 17.1367 191.261 17.1367C190.258 17.1367 189.445 16.7881 188.82 16.0908C188.201 15.3936 187.891 14.4707 187.891 13.3223V13.2334ZM189.162 13.3838C189.162 14.2041 189.351 14.8626 189.73 15.3594C190.112 15.8561 190.623 16.1045 191.261 16.1045C191.903 16.1045 192.414 15.8538 192.792 15.3525C193.17 14.8467 193.359 14.1403 193.359 13.2334C193.359 12.4222 193.166 11.766 192.778 11.2646C192.396 10.7588 191.885 10.5059 191.247 10.5059C190.623 10.5059 190.119 10.7542 189.736 11.251C189.354 11.7477 189.162 12.4587 189.162 13.3838ZM201.415 9.60352H202.68V17H201.415V11.6064L198.004 17H196.739V9.60352H198.004V15.0039L201.415 9.60352ZM201.757 6.91016C201.757 7.46159 201.568 7.90592 201.19 8.24316C200.816 8.57585 200.324 8.74219 199.713 8.74219C199.102 8.74219 198.608 8.57357 198.23 8.23633C197.851 7.89909 197.662 7.45703 197.662 6.91016H198.695C198.695 7.22917 198.781 7.47982 198.954 7.66211C199.127 7.83984 199.38 7.92871 199.713 7.92871C200.032 7.92871 200.28 7.83984 200.458 7.66211C200.64 7.48438 200.732 7.23372 200.732 6.91016H201.757ZM213.808 9.60352H215.073V17H213.808V11.6064L210.397 17H209.132V9.60352H210.397V15.0039L213.808 9.60352ZM227.465 17H226.201V10.6494H222.796V17H221.525V9.60352H227.465V17ZM236.164 13.3838C236.164 14.5094 235.906 15.4163 235.391 16.1045C234.876 16.7926 234.179 17.1367 233.299 17.1367C232.402 17.1367 231.695 16.8519 231.18 16.2822V19.8438H229.916V9.60352H231.071L231.132 10.4238C231.647 9.78581 232.363 9.4668 233.279 9.4668C234.168 9.4668 234.869 9.80176 235.384 10.4717C235.904 11.1416 236.164 12.0736 236.164 13.2676V13.3838ZM234.899 13.2402C234.899 12.4062 234.721 11.7477 234.366 11.2646C234.01 10.7816 233.523 10.54 232.903 10.54C232.137 10.54 231.563 10.8796 231.18 11.5586V15.0928C231.559 15.7673 232.137 16.1045 232.917 16.1045C233.523 16.1045 234.003 15.8652 234.359 15.3867C234.719 14.9036 234.899 14.1882 234.899 13.2402ZM242.982 9.60352H244.247V17H242.982V11.6064L239.571 17H238.306V9.60352H239.571V15.0039L242.982 9.60352ZM252.74 17H251.475V13.8418H248.078V17H246.806V9.60352H248.078V12.8096H251.475V9.60352H252.74V17ZM259.982 9.60352H261.247V17H259.982V11.6064L256.571 17H255.306V9.60352H256.571V15.0039L259.982 9.60352ZM267.956 15.3252L270.472 9.60352H272.051V17H270.786V11.6201L268.393 17H267.518L265.078 11.5039V17H263.813V9.60352H265.454L267.956 15.3252ZM279.074 17C279.001 16.8542 278.942 16.5944 278.896 16.2207C278.309 16.8314 277.607 17.1367 276.791 17.1367C276.062 17.1367 275.463 16.9316 274.993 16.5215C274.528 16.1068 274.296 15.5827 274.296 14.9492C274.296 14.179 274.588 13.582 275.171 13.1582C275.759 12.7298 276.584 12.5156 277.645 12.5156H278.876V11.9346C278.876 11.4925 278.744 11.1416 278.479 10.8818C278.215 10.6175 277.826 10.4854 277.311 10.4854C276.859 10.4854 276.481 10.5993 276.176 10.8271C275.87 11.055 275.718 11.3307 275.718 11.6543H274.446C274.446 11.2852 274.576 10.9297 274.836 10.5879C275.1 10.2415 275.456 9.9681 275.902 9.76758C276.354 9.56706 276.848 9.4668 277.386 9.4668C278.238 9.4668 278.906 9.68099 279.389 10.1094C279.872 10.5332 280.122 11.1188 280.141 11.8662V15.2705C280.141 15.9495 280.227 16.4896 280.4 16.8906V17H279.074ZM276.976 16.0361C277.372 16.0361 277.748 15.9336 278.104 15.7285C278.459 15.5234 278.716 15.2568 278.876 14.9287V13.4111H277.885C276.335 13.4111 275.561 13.8646 275.561 14.7715C275.561 15.168 275.693 15.4779 275.957 15.7012C276.221 15.9245 276.561 16.0361 276.976 16.0361ZM283.924 12.7412H285.701C285.797 11.7568 286.146 10.9661 286.747 10.3691C287.353 9.76758 288.117 9.4668 289.037 9.4668C290.003 9.4668 290.794 9.79264 291.409 10.4443C292.024 11.096 292.357 11.9437 292.407 12.9873L292.414 13.3838C292.414 14.1038 292.273 14.7533 291.99 15.332C291.708 15.9108 291.311 16.3574 290.801 16.6719C290.29 16.9818 289.707 17.1367 289.051 17.1367C288.098 17.1367 287.319 16.8268 286.713 16.207C286.107 15.5827 285.767 14.7738 285.694 13.7803H283.924V17H282.659V9.60352H283.924V12.7412ZM286.945 13.3838C286.945 14.2041 287.135 14.8626 287.513 15.3594C287.896 15.8561 288.408 16.1045 289.051 16.1045C289.693 16.1045 290.202 15.8516 290.575 15.3457C290.954 14.8398 291.143 14.1357 291.143 13.2334C291.143 12.4268 290.951 11.7705 290.568 11.2646C290.186 10.7588 289.675 10.5059 289.037 10.5059C288.408 10.5059 287.902 10.7542 287.52 11.251C287.137 11.7477 286.945 12.4587 286.945 13.3838Z" fill="#757575"/>
<path d="M301.902 12.8232L304.192 7.04688H305.716L302.196 15.3389C301.959 15.8675 301.738 16.2435 301.532 16.4668C301.327 16.6855 301.086 16.8542 300.808 16.9727C300.534 17.0866 300.19 17.1436 299.776 17.1436C299.416 17.1436 299.185 17.123 299.085 17.082L299.126 16.043L299.748 16.0703C300.227 16.0703 300.582 15.8402 300.815 15.3799L300.986 15.0244L301.245 14.416L297.855 7.04688H299.324L301.902 12.8232ZM310.012 16.1045C310.463 16.1045 310.857 15.9678 311.195 15.6943C311.532 15.4209 311.719 15.0791 311.755 14.6689H312.951C312.929 15.0928 312.783 15.4961 312.514 15.8789C312.245 16.2617 311.885 16.5671 311.434 16.7949C310.987 17.0228 310.513 17.1367 310.012 17.1367C309.005 17.1367 308.203 16.8018 307.606 16.1318C307.013 15.4574 306.717 14.5368 306.717 13.3701V13.1582C306.717 12.4382 306.849 11.7979 307.114 11.2373C307.378 10.6768 307.756 10.2415 308.248 9.93164C308.745 9.62174 309.331 9.4668 310.005 9.4668C310.835 9.4668 311.523 9.71517 312.07 10.2119C312.621 10.7087 312.915 11.3535 312.951 12.1465H311.755C311.719 11.668 311.536 11.276 311.208 10.9707C310.885 10.6608 310.484 10.5059 310.005 10.5059C309.363 10.5059 308.864 10.7383 308.508 11.2031C308.157 11.6634 307.982 12.3311 307.982 13.2061V13.4453C307.982 14.2975 308.157 14.9538 308.508 15.4141C308.859 15.8743 309.36 16.1045 310.012 16.1045ZM320.857 9.60352V17H319.585V10.6494H317.07L316.919 13.418C316.837 14.6895 316.623 15.5986 316.277 16.1455C315.935 16.6924 315.39 16.9772 314.643 17H314.137V15.8857L314.499 15.8584C314.91 15.8128 315.203 15.5758 315.381 15.1475C315.559 14.7191 315.673 13.9261 315.723 12.7686L315.86 9.60352H320.857ZM322.972 13.2334C322.972 12.5088 323.113 11.8571 323.396 11.2783C323.683 10.6995 324.08 10.2529 324.585 9.93848C325.096 9.62402 325.677 9.4668 326.329 9.4668C327.336 9.4668 328.149 9.81543 328.769 10.5127C329.393 11.21 329.706 12.1374 329.706 13.2949V13.3838C329.706 14.1038 329.567 14.751 329.289 15.3252C329.015 15.8949 328.621 16.3392 328.106 16.6582C327.596 16.9772 327.008 17.1367 326.342 17.1367C325.34 17.1367 324.526 16.7881 323.902 16.0908C323.282 15.3936 322.972 14.4707 322.972 13.3223V13.2334ZM324.244 13.3838C324.244 14.2041 324.433 14.8626 324.811 15.3594C325.194 15.8561 325.704 16.1045 326.342 16.1045C326.985 16.1045 327.495 15.8538 327.874 15.3525C328.252 14.8467 328.441 14.1403 328.441 13.2334C328.441 12.4222 328.247 11.766 327.86 11.2646C327.477 10.7588 326.967 10.5059 326.329 10.5059C325.704 10.5059 325.201 10.7542 324.818 11.251C324.435 11.7477 324.244 12.4587 324.244 13.3838ZM331.828 17V9.60352H334.712C335.697 9.60352 336.451 9.77669 336.975 10.123C337.504 10.4648 337.768 10.9684 337.768 11.6338C337.768 11.9756 337.666 12.2855 337.46 12.5635C337.255 12.8369 336.952 13.0465 336.551 13.1924C336.998 13.2972 337.356 13.5023 337.625 13.8076C337.898 14.113 338.035 14.4775 338.035 14.9014C338.035 15.5804 337.784 16.0999 337.283 16.46C336.786 16.82 336.082 17 335.17 17H331.828ZM333.092 13.7529V15.9814H335.184C335.713 15.9814 336.107 15.8835 336.367 15.6875C336.631 15.4915 336.763 15.2158 336.763 14.8604C336.763 14.1221 336.221 13.7529 335.136 13.7529H333.092ZM333.092 12.7412H334.726C335.911 12.7412 336.503 12.3949 336.503 11.7021C336.503 11.0094 335.943 10.6517 334.822 10.6289H333.092V12.7412ZM344.915 9.60352H346.179V17H344.915V11.6064L341.504 17H340.239V9.60352H341.504V15.0039L344.915 9.60352ZM354.283 9.60352V17H353.011V14.1221H351.104L349.361 17H347.994L349.853 13.9307C349.379 13.7575 349.015 13.4909 348.759 13.1309C348.509 12.7663 348.383 12.3424 348.383 11.8594C348.383 11.1849 348.636 10.6426 349.142 10.2324C349.648 9.81771 350.325 9.60807 351.173 9.60352H354.283ZM349.655 11.873C349.655 12.2331 349.778 12.5247 350.024 12.748C350.27 12.9668 350.596 13.0785 351.002 13.083H353.011V10.6289H351.193C350.724 10.6289 350.35 10.7451 350.072 10.9775C349.794 11.2054 349.655 11.5039 349.655 11.873ZM360.564 15.9678L361.002 15.4277C361.494 14.7897 361.774 13.8327 361.843 12.5566L361.959 9.60352H366.724V15.9678H367.674V19.1738H366.409V17H361.248V19.1738H359.983L359.99 15.9678H360.564ZM362.061 15.9678H365.459V10.7725H363.182L363.107 12.5361C363.03 14.0081 362.681 15.152 362.061 15.9678ZM369.16 13.2334C369.16 12.5088 369.301 11.8571 369.584 11.2783C369.871 10.6995 370.268 10.2529 370.773 9.93848C371.284 9.62402 371.865 9.4668 372.517 9.4668C373.524 9.4668 374.337 9.81543 374.957 10.5127C375.581 11.21 375.893 12.1374 375.893 13.2949V13.3838C375.893 14.1038 375.754 14.751 375.477 15.3252C375.203 15.8949 374.809 16.3392 374.294 16.6582C373.783 16.9772 373.196 17.1367 372.53 17.1367C371.528 17.1367 370.714 16.7881 370.09 16.0908C369.47 15.3936 369.16 14.4707 369.16 13.3223V13.2334ZM370.432 13.3838C370.432 14.2041 370.621 14.8626 370.999 15.3594C371.382 15.8561 371.892 16.1045 372.53 16.1045C373.173 16.1045 373.683 15.8538 374.061 15.3525C374.44 14.8467 374.629 14.1403 374.629 13.2334C374.629 12.4222 374.435 11.766 374.048 11.2646C373.665 10.7588 373.155 10.5059 372.517 10.5059C371.892 10.5059 371.389 10.7542 371.006 11.251C370.623 11.7477 370.432 12.4587 370.432 13.3838ZM382.678 10.6494H379.267V17H377.995V9.60352H382.678V10.6494ZM383.727 13.2334C383.727 12.5088 383.868 11.8571 384.15 11.2783C384.438 10.6995 384.834 10.2529 385.34 9.93848C385.85 9.62402 386.431 9.4668 387.083 9.4668C388.09 9.4668 388.904 9.81543 389.524 10.5127C390.148 11.21 390.46 12.1374 390.46 13.2949V13.3838C390.46 14.1038 390.321 14.751 390.043 15.3252C389.77 15.8949 389.375 16.3392 388.86 16.6582C388.35 16.9772 387.762 17.1367 387.097 17.1367C386.094 17.1367 385.281 16.7881 384.656 16.0908C384.037 15.3936 383.727 14.4707 383.727 13.3223V13.2334ZM384.998 13.3838C384.998 14.2041 385.187 14.8626 385.566 15.3594C385.948 15.8561 386.459 16.1045 387.097 16.1045C387.739 16.1045 388.25 15.8538 388.628 15.3525C389.006 14.8467 389.195 14.1403 389.195 13.2334C389.195 12.4222 389.002 11.766 388.614 11.2646C388.232 10.7588 387.721 10.5059 387.083 10.5059C386.459 10.5059 385.955 10.7542 385.572 11.251C385.19 11.7477 384.998 12.4587 384.998 13.3838ZM392.582 17V9.60352H395.467C396.451 9.60352 397.206 9.77669 397.73 10.123C398.258 10.4648 398.523 10.9684 398.523 11.6338C398.523 11.9756 398.42 12.2855 398.215 12.5635C398.01 12.8369 397.707 13.0465 397.306 13.1924C397.752 13.2972 398.11 13.5023 398.379 13.8076C398.653 14.113 398.789 14.4775 398.789 14.9014C398.789 15.5804 398.539 16.0999 398.037 16.46C397.541 16.82 396.836 17 395.925 17H392.582ZM393.847 13.7529V15.9814H395.939C396.467 15.9814 396.862 15.8835 397.121 15.6875C397.386 15.4915 397.518 15.2158 397.518 14.8604C397.518 14.1221 396.975 13.7529 395.891 13.7529H393.847ZM393.847 12.7412H395.481C396.666 12.7412 397.258 12.3949 397.258 11.7021C397.258 11.0094 396.697 10.6517 395.576 10.6289H393.847V12.7412ZM400.549 13.2334C400.549 12.5088 400.69 11.8571 400.973 11.2783C401.26 10.6995 401.656 10.2529 402.162 9.93848C402.673 9.62402 403.254 9.4668 403.906 9.4668C404.913 9.4668 405.726 9.81543 406.346 10.5127C406.97 11.21 407.282 12.1374 407.282 13.2949V13.3838C407.282 14.1038 407.143 14.751 406.865 15.3252C406.592 15.8949 406.198 16.3392 405.683 16.6582C405.172 16.9772 404.585 17.1367 403.919 17.1367C402.917 17.1367 402.103 16.7881 401.479 16.0908C400.859 15.3936 400.549 14.4707 400.549 13.3223V13.2334ZM401.821 13.3838C401.821 14.2041 402.01 14.8626 402.388 15.3594C402.771 15.8561 403.281 16.1045 403.919 16.1045C404.562 16.1045 405.072 15.8538 405.45 15.3525C405.829 14.8467 406.018 14.1403 406.018 13.2334C406.018 12.4222 405.824 11.766 405.437 11.2646C405.054 10.7588 404.544 10.5059 403.906 10.5059C403.281 10.5059 402.778 10.7542 402.395 11.251C402.012 11.7477 401.821 12.4587 401.821 13.3838ZM415.536 13.3838C415.536 14.5094 415.279 15.4163 414.764 16.1045C414.249 16.7926 413.552 17.1367 412.672 17.1367C411.774 17.1367 411.068 16.8519 410.553 16.2822V19.8438H409.288V9.60352H410.444L410.505 10.4238C411.02 9.78581 411.736 9.4668 412.652 9.4668C413.54 9.4668 414.242 9.80176 414.757 10.4717C415.277 11.1416 415.536 12.0736 415.536 13.2676V13.3838ZM414.272 13.2402C414.272 12.4062 414.094 11.7477 413.739 11.2646C413.383 10.7816 412.896 10.54 412.276 10.54C411.51 10.54 410.936 10.8796 410.553 11.5586V15.0928C410.931 15.7673 411.51 16.1045 412.289 16.1045C412.896 16.1045 413.376 15.8652 413.732 15.3867C414.092 14.9036 414.272 14.1882 414.272 13.2402ZM422.136 17C422.063 16.8542 422.004 16.5944 421.958 16.2207C421.371 16.8314 420.669 17.1367 419.853 17.1367C419.124 17.1367 418.524 16.9316 418.055 16.5215C417.59 16.1068 417.358 15.5827 417.358 14.9492C417.358 14.179 417.649 13.582 418.233 13.1582C418.821 12.7298 419.646 12.5156 420.707 12.5156H421.938V11.9346C421.938 11.4925 421.806 11.1416 421.541 10.8818C421.277 10.6175 420.887 10.4854 420.372 10.4854C419.921 10.4854 419.543 10.5993 419.238 10.8271C418.932 11.055 418.78 11.3307 418.78 11.6543H417.508C417.508 11.2852 417.638 10.9297 417.898 10.5879C418.162 10.2415 418.518 9.9681 418.964 9.76758C419.415 9.56706 419.91 9.4668 420.448 9.4668C421.3 9.4668 421.968 9.68099 422.451 10.1094C422.934 10.5332 423.184 11.1188 423.203 11.8662V15.2705C423.203 15.9495 423.289 16.4896 423.462 16.8906V17H422.136ZM420.038 16.0361C420.434 16.0361 420.81 15.9336 421.165 15.7285C421.521 15.5234 421.778 15.2568 421.938 14.9287V13.4111H420.947C419.397 13.4111 418.622 13.8646 418.622 14.7715C418.622 15.168 418.755 15.4779 419.019 15.7012C419.283 15.9245 419.623 16.0361 420.038 16.0361Z" fill="#2196F3"/>
<path d="M297.328 18.3672H424.228V19.0508H297.328V18.3672Z" fill="#2196F3"/>
</g>
</g>
</svg>
